<?xml version="1.0" encoding="UTF-8" standalone="no"?>
<!DOCTYPE svg PUBLIC "-//W3C//DTD SVG 1.1//EN" "http://www.w3.org/Graphics/SVG/1.1/DTD/svg11.dtd">
<svg width="100%" height="100%" viewBox="0 0 800 100" version="1.1" xmlns="http://www.w3.org/2000/svg" xmlns:xlink="http://www.w3.org/1999/xlink" xml:space="preserve" xmlns:serif="http://www.serif.com/" style="fill-rule:evenodd;clip-rule:evenodd;stroke-linejoin:round;stroke-miterlimit:2;">
    <g transform="matrix(1,0,0,1,-71.9847,-11.6607)">
        <path d="M131.006,28.356C135.568,28.356 139.974,29.356 144.224,31.356C146.224,32.294 147.615,32.762 148.396,32.762C148.959,32.762 149.865,32.622 151.115,32.34C151.521,32.247 151.974,32.2 152.474,32.2C154.099,32.2 155.521,32.95 156.74,34.45C159.74,38.075 161.24,42.575 161.24,47.95C161.24,51.731 159.943,54.497 157.349,56.247C155.943,57.184 154.365,57.653 152.615,57.653C151.021,57.653 149.724,57.309 148.724,56.622C147.724,55.934 146.756,54.715 145.818,52.965C144.474,50.497 143.381,48.723 142.537,47.645C141.693,46.567 140.662,45.59 139.443,44.715C136.412,42.59 133.24,41.528 129.928,41.528C126.709,41.528 124.154,42.692 122.263,45.02C120.373,47.348 119.428,50.465 119.428,54.372C119.428,59.747 120.787,64.669 123.506,69.137C127.193,75.106 132.474,78.09 139.349,78.09C141.881,78.09 144.388,77.669 146.873,76.825C149.357,75.981 151.287,74.887 152.662,73.544C153.849,72.419 154.818,71.856 155.568,71.856C156.662,71.856 157.599,72.364 158.381,73.379C159.162,74.395 159.553,75.622 159.553,77.059C159.553,78.872 159.006,80.903 157.912,83.153C156.818,85.403 155.506,87.169 153.974,88.45C153.318,88.981 151.959,89.45 149.896,89.856C148.709,90.075 147.131,90.653 145.162,91.59C140.537,93.809 135.724,94.919 130.724,94.919C125.506,94.919 120.303,93.747 115.115,91.403C109.084,88.684 104.318,84.512 100.818,78.887C97.381,73.419 95.662,67.7 95.662,61.731C95.662,54.794 97.818,48.465 102.131,42.747C105.881,37.778 110.771,33.981 116.803,31.356C121.396,29.356 126.131,28.356 131.006,28.356Z" style="fill:rgb(255,0,0);fill-rule:nonzero;stroke:black;stroke-width:1px;"/>
    </g>
    <g transform="matrix(1,0,0,1,-71.9847,-11.6607)">
        <path d="M216.069,28.356C224.1,28.356 231.116,30.653 237.116,35.247C241.178,38.403 244.475,42.497 247.006,47.528C249.475,52.528 250.709,57.528 250.709,62.528C250.709,69.903 248.272,76.497 243.397,82.309C239.272,87.247 233.881,90.794 227.225,92.95C223.131,94.262 219.022,94.919 214.897,94.919C209.491,94.919 204.319,93.794 199.381,91.544C193.413,88.825 188.741,84.715 185.366,79.215C182.084,73.903 180.444,68.044 180.444,61.637C180.444,54.2 182.553,47.637 186.772,41.95C190.522,36.887 195.569,33.169 201.913,30.794C206.163,29.169 210.881,28.356 216.069,28.356ZM211.616,41.809C208.991,41.809 206.913,42.981 205.381,45.325C204.194,47.075 203.6,49.153 203.6,51.559C203.6,55.09 204.319,59.176 205.756,63.817C207.194,68.458 209.006,72.575 211.194,76.169C212.163,77.7 213.358,78.919 214.78,79.825C216.202,80.731 217.647,81.184 219.116,81.184C221.491,81.184 223.405,80.294 224.858,78.512C226.311,76.731 227.038,74.387 227.038,71.481C227.038,67.7 226.428,63.622 225.209,59.247C223.991,54.872 222.413,51.137 220.475,48.044C219.288,46.137 217.913,44.637 216.35,43.544C214.788,42.45 213.209,41.872 211.616,41.809Z" style="fill:rgb(8,198,49);fill-rule:nonzero;stroke:black;stroke-width:1px;"/>
    </g>
    <g transform="matrix(1,0,0,1,-71.9847,-11.6607)">
        <path d="M300.288,50.153L300.288,71.669C300.288,76.512 300.71,79.637 301.554,81.044C302.585,82.7 304.757,83.528 308.069,83.528C311.632,83.528 314.444,82.747 316.507,81.184C318.569,79.622 320.007,77.184 320.819,73.872C321.288,71.84 322.351,70.825 324.007,70.825C325.663,70.825 327.015,71.567 328.062,73.051C329.108,74.536 329.632,76.465 329.632,78.84C329.632,82.715 328.194,86.856 325.319,91.262C324.413,92.669 323.616,93.629 322.929,94.145C322.241,94.661 321.413,94.919 320.444,94.919L310.038,93.653L277.273,93.653C275.116,93.653 273.601,93.403 272.726,92.903C271.444,92.184 270.804,91.106 270.804,89.669C270.804,88.794 271.015,88.145 271.437,87.723C271.858,87.301 272.882,86.7 274.507,85.919C276.288,85.075 277.429,83.887 277.929,82.356C278.335,81.075 278.538,77.34 278.538,71.153C278.538,68.278 278.46,64.137 278.304,58.731C278.148,53.544 278.054,49.637 278.023,47.012C278.023,44.512 277.827,42.801 277.437,41.879C277.046,40.958 276.226,40.294 274.976,39.887C272.913,39.169 271.601,38.59 271.038,38.153C270.038,37.372 269.538,36.481 269.538,35.481C269.538,33.2 271.429,31.465 275.21,30.278C278.429,29.247 282.741,28.731 288.148,28.731C294.21,28.731 298.741,29.044 301.741,29.669C305.616,30.512 307.554,32.2 307.554,34.731C307.554,35.762 307.296,36.528 306.78,37.028C306.265,37.528 305.007,38.2 303.007,39.044C301.819,39.575 301.069,40.481 300.757,41.762C300.444,43.044 300.288,45.84 300.288,50.153Z" style="fill:rgb(0,16,255);fill-rule:nonzero;stroke:black;stroke-width:1px;"/>
    </g>
    <g transform="matrix(1,0,0,1,-71.9847,-11.6607)">
        <path d="M382.07,28.356C390.101,28.356 397.117,30.653 403.117,35.247C407.179,38.403 410.476,42.497 413.008,47.528C415.476,52.528 416.711,57.528 416.711,62.528C416.711,69.903 414.273,76.497 409.398,82.309C405.273,87.247 399.883,90.794 393.226,92.95C389.133,94.262 385.023,94.919 380.898,94.919C375.492,94.919 370.32,93.794 365.383,91.544C359.414,88.825 354.742,84.715 351.367,79.215C348.086,73.903 346.445,68.044 346.445,61.637C346.445,54.2 348.554,47.637 352.773,41.95C356.523,36.887 361.57,33.169 367.914,30.794C372.164,29.169 376.883,28.356 382.07,28.356ZM377.617,41.809C374.992,41.809 372.914,42.981 371.383,45.325C370.195,47.075 369.601,49.153 369.601,51.559C369.601,55.09 370.32,59.176 371.758,63.817C373.195,68.458 375.008,72.575 377.195,76.169C378.164,77.7 379.359,78.919 380.781,79.825C382.203,80.731 383.648,81.184 385.117,81.184C387.492,81.184 389.406,80.294 390.859,78.512C392.312,76.731 393.039,74.387 393.039,71.481C393.039,67.7 392.429,63.622 391.211,59.247C389.992,54.872 388.414,51.137 386.476,48.044C385.289,46.137 383.914,44.637 382.351,43.544C380.789,42.45 379.211,41.872 377.617,41.809Z" style="fill:rgb(255,0,191);fill-rule:nonzero;stroke:black;stroke-width:1px;"/>
    </g>
    <g transform="matrix(1,0,0,1,-71.9847,-11.6607)">
        <path d="M466.805,66.747C465.618,66.747 464.86,67.106 464.532,67.825C464.203,68.544 464.039,70.215 464.039,72.84C464.039,76.809 464.289,79.903 464.789,82.122C464.946,82.747 465.18,83.231 465.493,83.575C465.805,83.919 466.399,84.34 467.274,84.84C469.149,85.872 470.086,87.231 470.086,88.919C470.086,90.981 468.782,92.442 466.172,93.301C463.563,94.161 459.149,94.59 452.93,94.59C441.368,94.59 435.586,92.403 435.586,88.028C435.586,87.278 435.758,86.676 436.102,86.223C436.446,85.77 437.227,85.137 438.446,84.325C439.821,83.419 440.75,82.348 441.235,81.114C441.719,79.879 442.055,77.747 442.243,74.715C442.399,72.497 442.477,64.544 442.477,50.856C442.477,46.512 442.258,43.559 441.821,41.997C441.383,40.434 440.446,39.294 439.008,38.575C437.633,37.919 436.711,37.317 436.243,36.77C435.774,36.223 435.539,35.512 435.539,34.637C435.539,33.481 435.985,32.473 436.875,31.614C437.766,30.754 439.008,30.122 440.602,29.715C441.946,29.372 443.789,29.2 446.133,29.2C447.164,29.2 449.743,29.356 453.868,29.669C454.649,29.731 455.883,29.762 457.571,29.762C460.383,29.762 464.133,29.575 468.821,29.2C471.789,28.981 473.868,28.872 475.055,28.872C481.743,28.872 487.274,30.481 491.649,33.7C495.586,36.606 497.555,40.637 497.555,45.794C497.555,48.669 496.868,51.286 495.493,53.645C494.118,56.004 492.227,57.778 489.821,58.965C488.821,59.465 488.321,60.059 488.321,60.747C488.321,61.653 489.086,62.387 490.618,62.95C493.899,64.137 496.305,65.934 497.836,68.34C499.368,70.747 500.461,74.434 501.118,79.403C501.399,81.465 501.805,82.801 502.336,83.411C502.868,84.02 504.102,84.606 506.039,85.169C506.633,85.356 507.133,85.754 507.539,86.364C507.946,86.973 508.149,87.653 508.149,88.403C508.149,89.372 507.774,90.348 507.024,91.333C506.274,92.317 505.305,93.09 504.118,93.653C501.493,94.872 497.899,95.481 493.336,95.481C487.243,95.481 482.883,93.872 480.258,90.653C479.071,89.215 478.063,87.403 477.235,85.215C476.407,83.028 475.43,79.622 474.305,74.997C473.586,72.028 472.672,69.934 471.563,68.715C470.453,67.497 468.868,66.84 466.805,66.747ZM464.086,42.84L463.571,53.762L463.571,54.184C463.571,55.309 463.735,56.059 464.063,56.434C464.391,56.809 465.055,56.997 466.055,56.997C468.805,56.997 470.805,56.286 472.055,54.864C473.305,53.442 473.93,51.169 473.93,48.044C473.93,42.012 471.789,38.997 467.508,38.997C466.289,38.997 465.43,39.278 464.93,39.84C464.43,40.403 464.149,41.403 464.086,42.84Z" style="fill:rgb(0,251,255);fill-rule:nonzero;stroke:black;stroke-width:1px;"/>
    </g>
    <g transform="matrix(1,0,0,1,-71.9847,-11.6607)">
        <path d="M533.868,71.575L533.868,46.919C533.868,43.731 533.649,41.708 533.212,40.848C532.774,39.989 531.587,39.294 529.649,38.762C526.837,37.95 525.431,36.544 525.431,34.544C525.431,33.137 526.024,32.059 527.212,31.309C528.399,30.559 530.118,30.184 532.368,30.184C533.118,30.184 534.978,30.231 537.946,30.325L540.759,30.325C545.946,30.294 548.985,30.254 549.876,30.208C550.767,30.161 553.946,29.887 559.415,29.387C561.228,29.2 562.884,29.106 564.384,29.106C569.509,29.106 574.071,30.153 578.071,32.247C585.04,35.872 588.524,41.622 588.524,49.497C588.524,55.872 586.087,60.981 581.212,64.825C576.618,68.419 571.056,70.215 564.524,70.215C562.868,70.215 560.837,70.106 558.431,69.887C557.149,69.794 556.353,69.747 556.04,69.747C555.134,69.747 554.681,70.262 554.681,71.294L554.681,71.575L555.009,79.262C555.071,80.762 555.345,81.879 555.829,82.614C556.313,83.348 557.306,84.106 558.806,84.887C560.837,85.981 561.853,87.169 561.853,88.45C561.853,90.419 560.353,91.934 557.353,92.997C554.353,94.059 550.103,94.59 544.603,94.59C533.04,94.59 527.259,92.606 527.259,88.637C527.259,87.7 527.509,86.981 528.009,86.481C528.509,85.981 529.681,85.262 531.524,84.325C532.649,83.731 533.306,82.903 533.493,81.84C533.681,80.778 533.806,77.356 533.868,71.575ZM555.009,40.965L555.009,56.903C555.009,58.122 555.274,58.856 555.806,59.106C556.712,59.544 557.853,59.762 559.228,59.762C561.29,59.762 563.024,59.184 564.431,58.028C566.462,56.372 567.478,53.59 567.478,49.684C567.478,45.622 566.29,42.684 563.915,40.872C562.415,39.715 560.603,39.137 558.478,39.137C556.165,39.137 555.009,39.747 555.009,40.965Z" style="fill:rgb(255,254,0);fill-rule:nonzero;stroke:black;stroke-width:1px;"/>
    </g>
    <g transform="matrix(1,0,0,1,-71.9847,-11.6607)">
        <path d="M660.463,61.262L669.322,80.247C670.166,81.997 670.869,83.145 671.431,83.692C671.994,84.239 672.853,84.606 674.009,84.794C676.259,85.137 677.384,86.278 677.384,88.215C677.384,90.497 676.009,92.137 673.259,93.137C670.509,94.137 666.009,94.637 659.759,94.637C652.697,94.637 647.463,94.34 644.056,93.747C642.494,93.465 641.252,92.895 640.33,92.036C639.408,91.176 638.947,90.137 638.947,88.919C638.947,87.981 639.189,87.254 639.673,86.739C640.158,86.223 641.056,85.747 642.369,85.309C643.838,84.809 644.572,83.965 644.572,82.778C644.572,80.684 643.306,79.45 640.775,79.075C638.056,78.7 634.228,78.512 629.291,78.512C625.134,78.512 622.65,78.762 621.838,79.262C621.338,79.575 620.9,80.137 620.525,80.95C620.15,81.762 619.963,82.544 619.963,83.294C619.963,83.981 620.095,84.426 620.361,84.629C620.627,84.833 621.494,85.169 622.963,85.637C624.869,86.2 625.822,87.325 625.822,89.012C625.822,92.731 621.369,94.59 612.463,94.59C607.4,94.59 603.681,94.247 601.306,93.559C599.119,92.903 598.025,91.465 598.025,89.247C598.025,88.278 598.267,87.528 598.752,86.997C599.236,86.465 600.103,85.981 601.353,85.544C603.384,84.825 604.923,83.817 605.97,82.52C607.017,81.223 608.509,78.45 610.447,74.2L617.056,59.715C619.494,54.403 621.127,50.426 621.955,47.786C622.783,45.145 623.213,42.559 623.244,40.028C623.275,37.34 623.439,35.473 623.736,34.426C624.033,33.379 624.697,32.356 625.728,31.356C627.884,29.169 630.634,28.075 633.978,28.075C637.134,28.075 640.15,29.309 643.025,31.778C647.025,35.153 652.838,44.981 660.463,61.262ZM627.838,67.169L637.025,67.169C638.713,67.169 639.556,66.794 639.556,66.044C639.556,65.012 638.384,62.481 636.041,58.45C634.978,56.606 634.166,55.372 633.603,54.747C633.041,54.122 632.447,53.809 631.822,53.809C630.697,53.809 629.759,54.856 629.009,56.95C628.884,57.231 628.431,58.34 627.65,60.278C626.338,63.465 625.681,65.372 625.681,65.997C625.681,66.778 626.4,67.169 627.838,67.169Z" style="fill:rgb(128,128,128);fill-rule:nonzero;stroke:black;stroke-width:1px;"/>
    </g>
    <g transform="matrix(1,0,0,1,-71.9847,-11.6607)">
        <path d="M725.276,66.747C724.088,66.747 723.33,67.106 723.002,67.825C722.674,68.544 722.51,70.215 722.51,72.84C722.51,76.809 722.76,79.903 723.26,82.122C723.416,82.747 723.651,83.231 723.963,83.575C724.276,83.919 724.869,84.34 725.744,84.84C727.619,85.872 728.557,87.231 728.557,88.919C728.557,90.981 727.252,92.442 724.643,93.301C722.033,94.161 717.619,94.59 711.401,94.59C699.838,94.59 694.057,92.403 694.057,88.028C694.057,87.278 694.229,86.676 694.573,86.223C694.916,85.77 695.698,85.137 696.916,84.325C698.291,83.419 699.221,82.348 699.705,81.114C700.19,79.879 700.526,77.747 700.713,74.715C700.869,72.497 700.948,64.544 700.948,50.856C700.948,46.512 700.729,43.559 700.291,41.997C699.854,40.434 698.916,39.294 697.479,38.575C696.104,37.919 695.182,37.317 694.713,36.77C694.244,36.223 694.01,35.512 694.01,34.637C694.01,33.481 694.455,32.473 695.346,31.614C696.237,30.754 697.479,30.122 699.073,29.715C700.416,29.372 702.26,29.2 704.604,29.2C705.635,29.2 708.213,29.356 712.338,29.669C713.119,29.731 714.354,29.762 716.041,29.762C718.854,29.762 722.604,29.575 727.291,29.2C730.26,28.981 732.338,28.872 733.526,28.872C740.213,28.872 745.744,30.481 750.119,33.7C754.057,36.606 756.026,40.637 756.026,45.794C756.026,48.669 755.338,51.286 753.963,53.645C752.588,56.004 750.698,57.778 748.291,58.965C747.291,59.465 746.791,60.059 746.791,60.747C746.791,61.653 747.557,62.387 749.088,62.95C752.369,64.137 754.776,65.934 756.307,68.34C757.838,70.747 758.932,74.434 759.588,79.403C759.869,81.465 760.276,82.801 760.807,83.411C761.338,84.02 762.573,84.606 764.51,85.169C765.104,85.356 765.604,85.754 766.01,86.364C766.416,86.973 766.619,87.653 766.619,88.403C766.619,89.372 766.244,90.348 765.494,91.333C764.744,92.317 763.776,93.09 762.588,93.653C759.963,94.872 756.369,95.481 751.807,95.481C745.713,95.481 741.354,93.872 738.729,90.653C737.541,89.215 736.533,87.403 735.705,85.215C734.877,83.028 733.901,79.622 732.776,74.997C732.057,72.028 731.143,69.934 730.033,68.715C728.924,67.497 727.338,66.84 725.276,66.747ZM722.557,42.84L722.041,53.762L722.041,54.184C722.041,55.309 722.205,56.059 722.533,56.434C722.862,56.809 723.526,56.997 724.526,56.997C727.276,56.997 729.276,56.286 730.526,54.864C731.776,53.442 732.401,51.169 732.401,48.044C732.401,42.012 730.26,38.997 725.979,38.997C724.76,38.997 723.901,39.278 723.401,39.84C722.901,40.403 722.619,41.403 722.557,42.84Z" style="fill:rgb(201,0,255);fill-rule:nonzero;stroke:black;stroke-width:1px;"/>
    </g>
    <g transform="matrix(1,0,0,1,-71.9847,-11.6607)">
        <path d="M794.214,29.669L818.308,29.669C823.183,29.669 826.737,29.567 828.972,29.364C831.206,29.161 833.386,28.747 835.511,28.122C836.167,27.934 836.683,27.84 837.058,27.84C838.683,27.84 840.12,28.715 841.37,30.465C843.433,33.309 844.464,36.747 844.464,40.778C844.464,42.809 844.034,44.411 843.175,45.583C842.315,46.754 841.136,47.34 839.636,47.34C838.604,47.34 837.8,47.129 837.222,46.708C836.643,46.286 835.87,45.34 834.901,43.872C833.526,41.778 831.784,40.379 829.675,39.676C827.565,38.973 824.104,38.622 819.292,38.622C815.698,38.622 813.511,39.262 812.729,40.544C812.323,41.231 812.081,42.153 812.003,43.309C811.925,44.465 811.886,47.419 811.886,52.169C811.886,54.044 812.198,55.208 812.823,55.661C813.448,56.114 815.089,56.34 817.745,56.34C819.058,56.34 820.011,56.067 820.604,55.52C821.198,54.973 821.573,53.997 821.729,52.59C821.948,50.778 822.175,49.536 822.409,48.864C822.643,48.192 823.073,47.606 823.698,47.106C824.354,46.544 825.12,46.262 825.995,46.262C827.276,46.262 828.37,46.872 829.276,48.09C829.933,48.997 830.487,50.598 830.94,52.895C831.393,55.192 831.62,57.59 831.62,60.09C831.62,65.028 830.854,69.075 829.323,72.231C828.479,73.95 827.198,74.809 825.479,74.809C824.417,74.809 823.683,74.536 823.276,73.989C822.87,73.442 822.558,72.309 822.339,70.59C821.87,67.059 819.808,65.294 816.151,65.294C814.745,65.294 813.784,65.739 813.268,66.629C812.753,67.52 812.495,69.169 812.495,71.575C812.495,73.044 812.597,74.942 812.8,77.27C813.003,79.598 813.214,81.137 813.433,81.887C813.683,82.825 814.456,83.473 815.753,83.833C817.05,84.192 819.214,84.372 822.245,84.372C826.933,84.372 830.464,83.77 832.839,82.567C835.214,81.364 837.151,79.184 838.651,76.028C839.526,74.215 840.315,72.997 841.018,72.372C841.722,71.747 842.636,71.434 843.761,71.434C845.073,71.434 846.159,72.004 847.018,73.145C847.878,74.286 848.308,75.715 848.308,77.434C848.308,79.309 847.823,81.653 846.854,84.465C845.886,87.278 844.698,89.778 843.292,91.965C842.573,93.028 841.979,93.739 841.511,94.098C841.042,94.458 840.448,94.637 839.729,94.637C839.136,94.637 838.276,94.544 837.151,94.356C835.151,93.981 832.479,93.747 829.136,93.653L789.386,93.653C787.792,93.653 786.558,93.301 785.683,92.598C784.808,91.895 784.37,90.903 784.37,89.622C784.37,88.715 784.558,88.059 784.933,87.653C785.308,87.247 786.167,86.731 787.511,86.106C788.448,85.7 789.143,85.2 789.597,84.606C790.05,84.012 790.401,83.137 790.651,81.981C791.683,77.262 792.198,70.903 792.198,62.903C792.198,50.84 791.448,43.231 789.948,40.075C789.636,39.45 789.292,39.012 788.917,38.762C788.542,38.512 787.761,38.215 786.573,37.872C784.792,37.34 783.901,36.153 783.901,34.309C783.901,33.309 784.198,32.419 784.792,31.637C785.386,30.856 786.167,30.34 787.136,30.09C788.354,29.809 790.714,29.669 794.214,29.669Z" style="fill:rgb(255,142,0);fill-rule:nonzero;stroke:black;stroke-width:1px;"/>
    </g>
</svg>
