<?xml version="1.0" encoding="UTF-8" standalone="no"?>
<!DOCTYPE svg PUBLIC "-//W3C//DTD SVG 1.1//EN" "http://www.w3.org/Graphics/SVG/1.1/DTD/svg11.dtd">
<svg width="100%" height="100%" viewBox="0 0 600 100" version="1.1" xmlns="http://www.w3.org/2000/svg" xmlns:xlink="http://www.w3.org/1999/xlink" xml:space="preserve" xmlns:serif="http://www.serif.com/" style="fill-rule:evenodd;clip-rule:evenodd;stroke-linejoin:round;stroke-miterlimit:2;">
    <g transform="matrix(8.11126,0,0,8.11126,-746.634,-291.518)">
        <path d="M94.128,45.341C93.901,45.169 93.716,44.955 93.571,44.697C93.427,44.439 93.313,44.165 93.231,43.876C93.149,43.587 93.095,43.288 93.067,42.98C93.04,42.671 93.03,42.376 93.038,42.095C93.108,41.884 93.194,41.691 93.296,41.515C93.397,41.339 93.511,41.171 93.636,41.011C93.761,40.851 93.891,40.699 94.028,40.554C94.165,40.41 94.3,40.263 94.433,40.115C94.479,40.115 94.522,40.126 94.561,40.15C94.593,40.064 94.64,39.99 94.702,39.927C94.765,39.865 94.831,39.808 94.901,39.757C94.972,39.706 95.042,39.656 95.112,39.605C95.183,39.554 95.241,39.494 95.288,39.423C95.483,39.376 95.657,39.31 95.809,39.224C95.962,39.138 96.108,39.044 96.249,38.943C96.39,38.841 96.534,38.747 96.683,38.662C96.831,38.576 97.003,38.509 97.198,38.462C97.268,38.384 97.356,38.318 97.462,38.263C97.567,38.208 97.673,38.158 97.778,38.111C97.884,38.064 97.985,38.013 98.083,37.958C98.181,37.904 98.261,37.83 98.323,37.736C98.37,37.798 98.436,37.82 98.522,37.8C98.608,37.781 98.686,37.759 98.757,37.736C98.804,37.728 98.843,37.736 98.874,37.759C98.905,37.783 98.934,37.808 98.962,37.835C98.989,37.863 99.013,37.88 99.032,37.888C99.052,37.896 99.073,37.872 99.097,37.818C99.159,37.826 99.177,37.853 99.149,37.9C99.122,37.947 99.104,37.978 99.097,37.994C99.175,37.978 99.239,37.992 99.29,38.035C99.341,38.078 99.421,38.107 99.53,38.122C99.569,38.162 99.581,38.193 99.565,38.216C99.55,38.24 99.538,38.279 99.53,38.333C99.811,38.419 99.991,38.554 100.069,38.738C100.147,38.921 100.155,39.113 100.093,39.312C100.03,39.511 99.915,39.695 99.747,39.863C99.579,40.031 99.393,40.142 99.19,40.197C98.948,40.259 98.724,40.322 98.516,40.384C98.309,40.447 98.11,40.517 97.919,40.595C97.727,40.673 97.548,40.765 97.38,40.871C97.212,40.976 97.065,41.099 96.94,41.24C96.722,41.302 96.524,41.388 96.349,41.497C96.173,41.607 96.009,41.728 95.856,41.861C95.704,41.994 95.558,42.132 95.417,42.277C95.276,42.421 95.136,42.564 94.995,42.705C94.995,42.837 94.972,42.939 94.925,43.009C94.878,43.08 94.827,43.15 94.772,43.22C94.788,43.369 94.821,43.496 94.872,43.601C94.923,43.706 94.975,43.814 95.03,43.923C95.655,44.111 96.317,44.226 97.016,44.269C97.716,44.312 98.409,44.337 99.097,44.345C99.167,44.439 99.247,44.527 99.337,44.609C99.427,44.691 99.509,44.775 99.583,44.861C99.657,44.947 99.716,45.046 99.759,45.16C99.802,45.273 99.811,45.408 99.788,45.564C99.655,45.697 99.511,45.824 99.354,45.945C99.198,46.066 99.042,46.185 98.886,46.302C98.815,46.31 98.731,46.31 98.634,46.302C98.536,46.294 98.434,46.29 98.329,46.29C98.224,46.29 98.118,46.296 98.013,46.308C97.907,46.32 97.808,46.345 97.714,46.384C97.222,46.369 96.718,46.308 96.202,46.203C95.686,46.097 95.21,45.97 94.772,45.822C94.686,45.72 94.597,45.624 94.503,45.535C94.409,45.445 94.284,45.38 94.128,45.341Z" style="fill:rgb(217,38,38);fill-rule:nonzero;"/>
        <path d="M103.198,46.408C102.854,46.455 102.542,46.439 102.261,46.361C101.979,46.283 101.727,46.162 101.505,45.997C101.282,45.833 101.091,45.638 100.931,45.412C100.77,45.185 100.64,44.943 100.538,44.685C100.468,44.154 100.487,43.671 100.597,43.238C100.706,42.804 100.866,42.404 101.077,42.037C101.288,41.669 101.528,41.326 101.798,41.005C102.067,40.685 102.327,40.376 102.577,40.08C102.632,40.103 102.677,40.103 102.712,40.08C102.747,40.056 102.778,40.025 102.806,39.986C102.833,39.947 102.864,39.908 102.899,39.869C102.934,39.83 102.975,39.802 103.022,39.787C103.054,39.716 103.095,39.658 103.145,39.611C103.196,39.564 103.251,39.519 103.309,39.476C103.368,39.433 103.423,39.388 103.474,39.341C103.524,39.294 103.569,39.236 103.608,39.165C103.686,39.15 103.755,39.122 103.813,39.083C103.872,39.044 103.927,39.001 103.977,38.955C104.028,38.908 104.081,38.865 104.136,38.826C104.19,38.787 104.257,38.755 104.335,38.732L104.335,38.58C104.507,38.501 104.632,38.415 104.71,38.322C104.788,38.228 104.882,38.107 104.991,37.958C105.077,37.951 105.145,37.947 105.196,37.947C105.247,37.947 105.327,37.939 105.436,37.923C105.507,37.79 105.573,37.693 105.636,37.63C105.698,37.568 105.788,37.497 105.905,37.419C106.022,37.482 106.147,37.519 106.28,37.531C106.413,37.542 106.534,37.603 106.643,37.712C106.651,37.806 106.679,37.878 106.725,37.929C106.772,37.98 106.823,38.027 106.878,38.07C106.933,38.113 106.987,38.158 107.042,38.205C107.097,38.251 107.132,38.318 107.147,38.404C107.186,38.404 107.212,38.396 107.224,38.38C107.235,38.365 107.261,38.361 107.3,38.369C107.315,38.431 107.331,38.482 107.347,38.521C107.362,38.56 107.38,38.595 107.399,38.626C107.419,38.658 107.438,38.693 107.458,38.732C107.477,38.771 107.495,38.818 107.511,38.872C107.472,38.966 107.436,39.066 107.405,39.171C107.374,39.277 107.311,39.349 107.218,39.388C107.218,39.451 107.241,39.484 107.288,39.488C107.335,39.492 107.362,39.521 107.37,39.576C107.378,39.646 107.366,39.705 107.335,39.751C107.554,40.119 107.753,40.503 107.933,40.906C108.112,41.308 108.315,41.693 108.542,42.06C108.526,42.169 108.532,42.277 108.559,42.382C108.587,42.488 108.622,42.591 108.665,42.693C108.708,42.794 108.749,42.896 108.788,42.997C108.827,43.099 108.854,43.201 108.87,43.302C108.886,43.435 108.886,43.578 108.87,43.73C108.854,43.882 108.823,44.029 108.776,44.169C108.729,44.31 108.667,44.441 108.589,44.562C108.511,44.683 108.421,44.775 108.319,44.837C108.194,44.994 108.038,45.121 107.85,45.218C107.663,45.316 107.491,45.431 107.335,45.564C107.225,45.626 107.108,45.671 106.983,45.699C106.858,45.726 106.729,45.755 106.597,45.787C106.495,45.849 106.374,45.91 106.233,45.968C106.093,46.027 105.948,46.08 105.8,46.126C105.651,46.173 105.503,46.21 105.354,46.238C105.206,46.265 105.073,46.271 104.956,46.255C104.675,46.357 104.401,46.427 104.136,46.466C103.87,46.505 103.558,46.486 103.198,46.408ZM103.35,42.142C103.272,42.322 103.181,42.484 103.075,42.628C102.97,42.773 102.866,42.919 102.765,43.068C102.663,43.216 102.575,43.374 102.501,43.542C102.427,43.71 102.386,43.908 102.378,44.134C102.534,44.267 102.72,44.347 102.934,44.374C103.149,44.402 103.37,44.406 103.597,44.386C103.823,44.367 104.05,44.337 104.276,44.298C104.503,44.259 104.706,44.24 104.886,44.24C104.886,44.169 104.917,44.134 104.979,44.134C105.308,44.103 105.612,44.011 105.893,43.859C106.175,43.706 106.468,43.552 106.772,43.396C106.811,43.302 106.862,43.22 106.925,43.15C106.987,43.08 107.022,42.978 107.03,42.845C106.991,42.775 106.966,42.716 106.954,42.669C106.942,42.622 106.936,42.552 106.936,42.458C106.733,42.177 106.558,41.871 106.409,41.538C106.261,41.206 106.089,40.892 105.893,40.595C105.878,40.634 105.847,40.673 105.8,40.712C105.753,40.751 105.702,40.744 105.647,40.689C105.624,40.767 105.589,40.82 105.542,40.847C105.495,40.874 105.442,40.888 105.384,40.888C105.325,40.888 105.266,40.876 105.208,40.853C105.149,40.83 105.097,40.798 105.05,40.759C104.776,40.978 104.505,41.189 104.235,41.392C103.966,41.595 103.722,41.833 103.503,42.107C103.464,42.13 103.44,42.138 103.433,42.13C103.425,42.122 103.397,42.126 103.35,42.142Z" style="fill:rgb(217,157,38);fill-rule:nonzero;"/>
        <path d="M109.972,45.927C109.94,45.896 109.913,45.859 109.89,45.816C109.866,45.773 109.847,45.716 109.831,45.646C109.722,45.513 109.636,45.361 109.573,45.189C109.511,45.017 109.468,44.839 109.444,44.656C109.421,44.472 109.417,44.287 109.433,44.099C109.448,43.912 109.475,43.736 109.515,43.572C109.538,43.494 109.558,43.412 109.573,43.326C109.612,43.177 109.651,43.031 109.69,42.886C109.729,42.742 109.788,42.622 109.866,42.529C109.835,42.443 109.839,42.349 109.878,42.247C109.917,42.146 109.956,42.052 109.995,41.966C110.011,41.943 110.022,41.921 110.03,41.902C110.038,41.882 110.046,41.865 110.054,41.849C110.147,41.576 110.239,41.312 110.329,41.058C110.419,40.804 110.507,40.56 110.593,40.326C110.749,39.896 110.899,39.474 111.044,39.06C111.188,38.646 111.319,38.205 111.436,37.736C111.499,37.689 111.554,37.658 111.6,37.642C111.616,37.634 111.636,37.626 111.659,37.619C111.683,37.611 111.71,37.607 111.741,37.607C111.905,37.693 112.099,37.773 112.321,37.847C112.544,37.921 112.733,37.958 112.89,37.958L113.089,38.134C113.19,38.251 113.278,38.374 113.352,38.503C113.427,38.632 113.448,38.798 113.417,39.001C113.37,39.072 113.331,39.115 113.3,39.13C113.253,39.31 113.202,39.468 113.147,39.605C113.093,39.742 113.038,39.872 112.983,39.997C112.921,40.138 112.862,40.279 112.808,40.419C112.753,40.56 112.706,40.732 112.667,40.935C112.62,40.99 112.591,41.037 112.579,41.076C112.567,41.115 112.554,41.154 112.538,41.193C112.522,41.24 112.503,41.288 112.479,41.339C112.456,41.39 112.421,41.435 112.374,41.474C112.343,41.716 112.296,41.913 112.233,42.066C112.171,42.218 112.108,42.369 112.046,42.517C111.936,42.79 111.835,43.062 111.741,43.331C111.647,43.601 111.593,43.908 111.577,44.251C111.671,44.228 111.757,44.216 111.835,44.216C111.936,44.216 112.034,44.232 112.128,44.263C112.409,44.122 112.716,44.037 113.048,44.005C113.38,43.974 113.71,43.955 114.038,43.947C114.311,43.947 114.565,43.935 114.8,43.912C114.878,43.966 114.929,43.996 114.952,43.999C114.975,44.003 115.015,44.005 115.069,44.005L115.14,44.005C115.163,44.005 115.194,44.009 115.233,44.017C115.343,44.126 115.448,44.203 115.55,44.246C115.651,44.288 115.761,44.33 115.878,44.369C115.979,44.408 116.079,44.449 116.177,44.492C116.274,44.535 116.37,44.591 116.464,44.662L116.569,45.259C116.632,45.345 116.659,45.404 116.651,45.435C116.651,45.497 116.636,45.552 116.604,45.599L116.628,45.751C116.479,45.783 116.382,45.816 116.335,45.851C116.288,45.886 116.237,45.931 116.183,45.986C116.097,45.994 116.015,45.997 115.936,45.997C115.78,45.997 115.62,46.021 115.456,46.068C115.222,45.982 114.964,45.939 114.683,45.939C114.573,45.939 114.462,45.943 114.349,45.951C114.235,45.958 114.124,45.97 114.015,45.986C113.897,46.001 113.78,46.015 113.663,46.027C113.546,46.038 113.429,46.044 113.311,46.044C113.218,46.06 113.151,46.072 113.112,46.08C113.073,46.087 113.034,46.099 112.995,46.115C112.729,46.201 112.442,46.287 112.134,46.372C111.825,46.458 111.515,46.501 111.202,46.501C110.741,46.501 110.37,46.384 110.089,46.15C110.058,46.08 110.034,46.033 110.018,46.009C110.003,45.986 109.987,45.958 109.972,45.927Z" style="fill:rgb(159,217,38);fill-rule:nonzero;"/>
        <path d="M119.722,46.408C119.378,46.455 119.065,46.439 118.784,46.361C118.503,46.283 118.251,46.162 118.028,45.997C117.806,45.833 117.614,45.638 117.454,45.412C117.294,45.185 117.163,44.943 117.061,44.685C116.991,44.154 117.011,43.671 117.12,43.238C117.229,42.804 117.39,42.404 117.6,42.037C117.811,41.669 118.052,41.326 118.321,41.005C118.591,40.685 118.85,40.376 119.1,40.08C119.155,40.103 119.2,40.103 119.235,40.08C119.27,40.056 119.302,40.025 119.329,39.986C119.356,39.947 119.388,39.908 119.423,39.869C119.458,39.83 119.499,39.802 119.546,39.787C119.577,39.716 119.618,39.658 119.669,39.611C119.72,39.564 119.774,39.519 119.833,39.476C119.891,39.433 119.946,39.388 119.997,39.341C120.048,39.294 120.093,39.236 120.132,39.165C120.21,39.15 120.278,39.122 120.337,39.083C120.395,39.044 120.45,39.001 120.501,38.955C120.552,38.908 120.604,38.865 120.659,38.826C120.714,38.787 120.78,38.755 120.858,38.732L120.858,38.58C121.03,38.501 121.155,38.415 121.233,38.322C121.311,38.228 121.405,38.107 121.515,37.958C121.6,37.951 121.669,37.947 121.72,37.947C121.77,37.947 121.85,37.939 121.96,37.923C122.03,37.79 122.097,37.693 122.159,37.63C122.222,37.568 122.311,37.497 122.429,37.419C122.546,37.482 122.671,37.519 122.804,37.531C122.936,37.542 123.058,37.603 123.167,37.712C123.175,37.806 123.202,37.878 123.249,37.929C123.296,37.98 123.347,38.027 123.401,38.07C123.456,38.113 123.511,38.158 123.565,38.205C123.62,38.251 123.655,38.318 123.671,38.404C123.71,38.404 123.735,38.396 123.747,38.38C123.759,38.365 123.784,38.361 123.823,38.369C123.839,38.431 123.854,38.482 123.87,38.521C123.886,38.56 123.903,38.595 123.923,38.626C123.942,38.658 123.962,38.693 123.981,38.732C124.001,38.771 124.018,38.818 124.034,38.872C123.995,38.966 123.96,39.066 123.929,39.171C123.897,39.277 123.835,39.349 123.741,39.388C123.741,39.451 123.765,39.484 123.811,39.488C123.858,39.492 123.886,39.521 123.893,39.576C123.901,39.646 123.89,39.705 123.858,39.751C124.077,40.119 124.276,40.503 124.456,40.906C124.636,41.308 124.839,41.693 125.065,42.06C125.05,42.169 125.056,42.277 125.083,42.382C125.11,42.488 125.145,42.591 125.188,42.693C125.231,42.794 125.272,42.896 125.311,42.997C125.35,43.099 125.378,43.201 125.393,43.302C125.409,43.435 125.409,43.578 125.393,43.73C125.378,43.882 125.347,44.029 125.3,44.169C125.253,44.31 125.19,44.441 125.112,44.562C125.034,44.683 124.944,44.775 124.843,44.837C124.718,44.994 124.561,45.121 124.374,45.218C124.186,45.316 124.015,45.431 123.858,45.564C123.749,45.626 123.632,45.671 123.507,45.699C123.382,45.726 123.253,45.755 123.12,45.787C123.018,45.849 122.897,45.91 122.757,45.968C122.616,46.027 122.472,46.08 122.323,46.126C122.175,46.173 122.026,46.21 121.878,46.238C121.729,46.265 121.597,46.271 121.479,46.255C121.198,46.357 120.925,46.427 120.659,46.466C120.393,46.505 120.081,46.486 119.722,46.408ZM119.874,42.142C119.796,42.322 119.704,42.484 119.599,42.628C119.493,42.773 119.39,42.919 119.288,43.068C119.186,43.216 119.099,43.374 119.024,43.542C118.95,43.71 118.909,43.908 118.901,44.134C119.058,44.267 119.243,44.347 119.458,44.374C119.673,44.402 119.893,44.406 120.12,44.386C120.347,44.367 120.573,44.337 120.8,44.298C121.026,44.259 121.229,44.24 121.409,44.24C121.409,44.169 121.44,44.134 121.503,44.134C121.831,44.103 122.136,44.011 122.417,43.859C122.698,43.706 122.991,43.552 123.296,43.396C123.335,43.302 123.386,43.22 123.448,43.15C123.511,43.08 123.546,42.978 123.554,42.845C123.515,42.775 123.489,42.716 123.477,42.669C123.466,42.622 123.46,42.552 123.46,42.458C123.257,42.177 123.081,41.871 122.933,41.538C122.784,41.206 122.612,40.892 122.417,40.595C122.401,40.634 122.37,40.673 122.323,40.712C122.276,40.751 122.225,40.744 122.171,40.689C122.147,40.767 122.112,40.82 122.065,40.847C122.018,40.874 121.966,40.888 121.907,40.888C121.849,40.888 121.79,40.876 121.731,40.853C121.673,40.83 121.62,40.798 121.573,40.759C121.3,40.978 121.028,41.189 120.759,41.392C120.489,41.595 120.245,41.833 120.026,42.107C119.987,42.13 119.964,42.138 119.956,42.13C119.948,42.122 119.921,42.126 119.874,42.142Z" style="fill:rgb(38,217,39);fill-rule:nonzero;"/>
        <path d="M126.155,45.353C126.116,45.361 126.081,45.331 126.05,45.265C126.018,45.199 125.983,45.134 125.944,45.072L126.073,45.072C126.018,44.9 126.005,44.742 126.032,44.597C126.059,44.453 126.093,44.312 126.132,44.175C126.171,44.038 126.204,43.906 126.231,43.777C126.259,43.648 126.245,43.513 126.19,43.372C126.229,43.396 126.259,43.386 126.278,43.343C126.298,43.3 126.313,43.246 126.325,43.179C126.337,43.113 126.341,43.042 126.337,42.968C126.333,42.894 126.327,42.833 126.319,42.787C126.421,42.544 126.501,42.294 126.559,42.037C126.618,41.779 126.671,41.523 126.718,41.269C126.765,41.015 126.817,40.769 126.876,40.531C126.934,40.292 127.011,40.068 127.104,39.857C127.214,39.841 127.329,39.855 127.45,39.898C127.571,39.941 127.651,39.994 127.69,40.056C127.933,39.869 128.147,39.642 128.335,39.376C128.522,39.111 128.712,38.851 128.903,38.597C129.095,38.343 129.311,38.119 129.554,37.923C129.796,37.728 130.097,37.611 130.456,37.572C130.643,37.705 130.854,37.847 131.089,37.999C131.323,38.152 131.515,38.341 131.663,38.568C131.725,38.607 131.786,38.648 131.845,38.691C131.903,38.734 131.964,38.775 132.026,38.814L132.026,38.99C132.136,39.091 132.227,39.21 132.302,39.347C132.376,39.484 132.442,39.628 132.501,39.781C132.559,39.933 132.616,40.087 132.671,40.244C132.725,40.4 132.788,40.544 132.858,40.677C132.843,40.724 132.837,40.765 132.841,40.8C132.845,40.835 132.852,40.871 132.864,40.906C132.876,40.941 132.886,40.98 132.893,41.023C132.901,41.066 132.905,41.119 132.905,41.181C132.874,41.595 132.739,41.929 132.501,42.183C132.263,42.437 131.974,42.644 131.634,42.804C131.294,42.964 130.933,43.101 130.55,43.214C130.167,43.328 129.819,43.451 129.507,43.583C129.507,43.615 129.524,43.63 129.559,43.63C129.595,43.63 129.604,43.654 129.589,43.701C129.823,43.841 130.005,43.955 130.134,44.04C130.263,44.126 130.384,44.199 130.497,44.257C130.61,44.316 130.735,44.365 130.872,44.404C131.009,44.443 131.198,44.49 131.44,44.544C131.683,44.599 131.872,44.644 132.009,44.679C132.145,44.714 132.268,44.742 132.378,44.761C132.487,44.781 132.604,44.798 132.729,44.814C132.854,44.83 133.022,44.849 133.233,44.872C133.319,44.958 133.39,45.06 133.444,45.177C133.499,45.294 133.538,45.412 133.561,45.529C133.585,45.646 133.591,45.757 133.579,45.863C133.567,45.968 133.534,46.052 133.479,46.115C133.487,46.146 133.509,46.16 133.544,46.156C133.579,46.152 133.616,46.154 133.655,46.162C133.6,46.201 133.554,46.247 133.515,46.302C133.475,46.357 133.436,46.412 133.397,46.466C133.358,46.521 133.313,46.572 133.263,46.619C133.212,46.665 133.147,46.693 133.069,46.701C132.788,46.81 132.429,46.814 131.991,46.712C131.554,46.611 130.995,46.431 130.315,46.173C129.979,46.048 129.706,45.935 129.495,45.833C129.284,45.732 129.1,45.632 128.944,45.535C128.788,45.437 128.643,45.331 128.511,45.218C128.378,45.105 128.225,44.97 128.054,44.814C128.03,44.822 128.016,44.837 128.013,44.861C128.009,44.884 127.995,44.9 127.972,44.908C127.933,45.22 127.872,45.474 127.79,45.669C127.708,45.865 127.589,46.064 127.433,46.267C127.308,46.244 127.224,46.255 127.181,46.302C127.138,46.349 127.085,46.392 127.022,46.431C126.944,46.447 126.886,46.445 126.847,46.425C126.808,46.406 126.772,46.384 126.741,46.361C126.71,46.337 126.675,46.314 126.636,46.29C126.597,46.267 126.534,46.259 126.448,46.267C126.425,46.197 126.401,46.128 126.378,46.062C126.354,45.996 126.292,45.966 126.19,45.974C126.214,45.904 126.222,45.843 126.214,45.792C126.206,45.742 126.194,45.695 126.179,45.652C126.163,45.609 126.149,45.564 126.138,45.517C126.126,45.47 126.132,45.415 126.155,45.353ZM130.069,39.997C129.968,40.146 129.854,40.281 129.729,40.402C129.604,40.523 129.481,40.648 129.36,40.777C129.239,40.906 129.132,41.046 129.038,41.199C128.944,41.351 128.878,41.533 128.839,41.744C129.167,41.705 129.511,41.613 129.87,41.468C130.229,41.324 130.569,41.185 130.89,41.052C130.85,40.763 130.749,40.531 130.585,40.355C130.421,40.179 130.249,40.06 130.069,39.997Z" style="fill:rgb(38,217,158);fill-rule:nonzero;"/>
        <path d="M134.112,43.056C134.12,43.025 134.138,43.011 134.165,43.015C134.192,43.019 134.218,43.017 134.241,43.009C134.179,42.947 134.14,42.863 134.124,42.757C134.108,42.652 134.069,42.564 134.007,42.494C134.022,42.455 134.036,42.415 134.048,42.376C134.059,42.337 134.093,42.322 134.147,42.33C134.124,42.158 134.128,41.997 134.159,41.849C134.19,41.701 134.239,41.56 134.306,41.427C134.372,41.294 134.45,41.163 134.54,41.035C134.63,40.906 134.718,40.775 134.804,40.642C134.874,40.626 134.917,40.632 134.933,40.66C134.948,40.687 134.975,40.681 135.015,40.642C135.14,40.556 135.225,40.46 135.272,40.355C135.319,40.249 135.343,40.134 135.343,40.009C135.413,39.806 135.493,39.605 135.583,39.406C135.673,39.206 135.776,39.021 135.893,38.849C136.011,38.677 136.136,38.527 136.268,38.398C136.401,38.269 136.546,38.169 136.702,38.099C136.811,38.005 136.95,37.919 137.118,37.841C137.286,37.763 137.466,37.703 137.657,37.66C137.849,37.617 138.046,37.593 138.249,37.589C138.452,37.585 138.64,37.607 138.811,37.654C138.85,37.669 138.874,37.66 138.882,37.624C138.89,37.589 138.909,37.572 138.94,37.572C139.331,37.619 139.681,37.697 139.989,37.806C140.298,37.915 140.561,38.068 140.78,38.263C140.929,38.497 141.069,38.749 141.202,39.019C141.335,39.288 141.438,39.57 141.513,39.863C141.587,40.156 141.62,40.458 141.612,40.771C141.604,41.083 141.538,41.396 141.413,41.708C141.14,42.052 140.808,42.328 140.417,42.535C140.026,42.742 139.606,42.913 139.157,43.05C138.708,43.187 138.243,43.298 137.763,43.384C137.282,43.47 136.815,43.564 136.362,43.665C136.37,43.876 136.37,44.101 136.362,44.339C136.354,44.578 136.329,44.816 136.286,45.054C136.243,45.292 136.181,45.525 136.099,45.751C136.016,45.978 135.905,46.189 135.765,46.384C135.608,46.376 135.446,46.392 135.278,46.431C135.11,46.47 134.96,46.509 134.827,46.548C134.765,46.509 134.704,46.472 134.645,46.437C134.587,46.402 134.515,46.38 134.429,46.372C134.452,46.279 134.431,46.181 134.364,46.08C134.298,45.978 134.231,45.878 134.165,45.781C134.099,45.683 134.056,45.585 134.036,45.488C134.016,45.39 134.061,45.302 134.171,45.224C134.108,45.169 134.077,45.083 134.077,44.966C134.108,44.997 134.147,45.013 134.194,45.013C134.179,44.872 134.196,44.705 134.247,44.509C134.298,44.314 134.341,44.121 134.376,43.929C134.411,43.738 134.417,43.562 134.393,43.402C134.37,43.242 134.276,43.126 134.112,43.056ZM137.159,40.314C137.128,40.4 137.102,40.476 137.083,40.542C137.063,40.609 137.042,40.669 137.018,40.724C136.995,40.779 136.97,40.833 136.942,40.888C136.915,40.943 136.886,41.005 136.854,41.076C136.87,41.122 136.901,41.158 136.948,41.181C136.995,41.205 137.026,41.24 137.042,41.287C137.151,41.232 137.261,41.191 137.37,41.163C137.479,41.136 137.589,41.115 137.698,41.099C137.808,41.083 137.917,41.064 138.026,41.04C138.136,41.017 138.249,40.978 138.366,40.923C138.483,40.869 138.606,40.824 138.735,40.788C138.864,40.753 138.991,40.716 139.116,40.677C139.241,40.638 139.362,40.593 139.479,40.542C139.597,40.492 139.698,40.423 139.784,40.337C139.675,40.236 139.511,40.146 139.292,40.068C139.073,39.99 138.837,39.941 138.583,39.921C138.329,39.902 138.075,39.919 137.821,39.974C137.567,40.029 137.347,40.142 137.159,40.314Z" style="fill:rgb(38,158,217);fill-rule:nonzero;"/>
        <path d="M140.722,45.247L140.874,45.13L140.886,44.884C141.081,44.408 141.282,43.951 141.489,43.513C141.696,43.076 141.913,42.626 142.14,42.165C142.21,42.017 142.282,41.869 142.356,41.72C142.431,41.572 142.503,41.419 142.573,41.263C142.565,41.232 142.561,41.199 142.561,41.163C142.561,41.128 142.569,41.087 142.585,41.04C142.694,40.884 142.782,40.744 142.849,40.619C142.915,40.494 142.979,40.365 143.042,40.232C143.112,40.076 143.188,39.919 143.27,39.763C143.352,39.607 143.456,39.455 143.581,39.306L143.663,39.189L143.792,39.201C143.823,39.185 143.856,39.171 143.891,39.16C143.927,39.148 143.972,39.142 144.026,39.142L144.237,39.177C144.495,39.06 144.724,38.89 144.923,38.667C145.122,38.445 145.323,38.177 145.526,37.865L145.667,37.665L145.854,37.783C145.893,37.806 145.956,37.83 146.042,37.853C146.128,37.876 146.218,37.904 146.311,37.935C146.475,37.974 146.636,38.019 146.792,38.07C146.948,38.121 147.069,38.189 147.155,38.275L147.214,38.38C147.229,38.466 147.243,38.544 147.255,38.615C147.266,38.685 147.28,38.755 147.296,38.826C147.327,38.99 147.354,39.152 147.378,39.312C147.401,39.472 147.417,39.65 147.425,39.845C147.464,40.001 147.501,40.16 147.536,40.32C147.571,40.48 147.604,40.638 147.636,40.794C147.675,41.021 147.718,41.238 147.765,41.445C147.811,41.652 147.874,41.849 147.952,42.037C148.03,42.037 148.077,42.04 148.093,42.048C148.186,42.009 148.296,41.986 148.421,41.978L148.573,41.966L148.62,42.107C148.636,42.13 148.655,42.154 148.679,42.177C148.702,42.201 148.729,42.224 148.761,42.247C148.886,42.255 148.977,42.281 149.036,42.324C149.095,42.367 149.143,42.408 149.183,42.447C149.198,42.462 149.218,42.48 149.241,42.499C149.265,42.519 149.284,42.533 149.3,42.54L149.511,42.622L149.393,42.845C149.308,43.009 149.177,43.169 149.001,43.326C148.825,43.482 148.628,43.611 148.409,43.712C148.425,43.767 148.434,43.818 148.438,43.865C148.442,43.912 148.452,43.966 148.468,44.029C148.499,44.185 148.524,44.347 148.544,44.515C148.563,44.683 148.561,44.857 148.538,45.037C148.46,45.24 148.368,45.421 148.263,45.581C148.157,45.742 148.032,45.886 147.888,46.015C147.743,46.144 147.581,46.249 147.401,46.331C147.222,46.413 147.034,46.458 146.839,46.466C146.729,46.443 146.649,46.415 146.599,46.384C146.548,46.353 146.503,46.322 146.464,46.29C146.401,46.244 146.35,46.212 146.311,46.197L146.159,46.126L146.206,45.951C146.229,45.888 146.227,45.833 146.2,45.787C146.173,45.74 146.116,45.677 146.03,45.599C145.999,45.576 145.972,45.55 145.948,45.523C145.925,45.496 145.897,45.466 145.866,45.435L145.632,45.165L146.018,45.06C146.253,44.997 146.409,44.917 146.487,44.82C146.565,44.722 146.597,44.548 146.581,44.298C146.386,44.259 146.225,44.253 146.1,44.281C145.975,44.308 145.85,44.337 145.725,44.369C145.546,44.415 145.37,44.456 145.198,44.492C145.026,44.527 144.839,44.544 144.636,44.544C144.503,44.544 144.362,44.533 144.214,44.509L144.085,44.497L144.05,44.369C144.05,44.353 144.04,44.335 144.02,44.316C144.001,44.296 143.983,44.279 143.968,44.263C143.929,44.216 143.882,44.154 143.827,44.076C143.772,43.997 143.761,43.9 143.792,43.783C143.737,43.697 143.706,43.607 143.698,43.513C143.667,43.576 143.641,43.636 143.622,43.695C143.602,43.753 143.585,43.81 143.569,43.865L143.522,44.017L143.37,44.04C143.354,44.056 143.341,44.08 143.329,44.111C143.317,44.142 143.315,44.165 143.323,44.181L143.37,44.31L143.253,44.415C143.237,44.439 143.218,44.458 143.194,44.474C143.171,44.49 143.151,44.505 143.136,44.521C143.12,44.607 143.099,44.689 143.071,44.767C143.044,44.845 143.015,44.923 142.983,45.001C142.944,45.126 142.907,45.247 142.872,45.365C142.837,45.482 142.819,45.599 142.819,45.716L142.772,45.869C142.733,45.931 142.684,45.978 142.626,46.009C142.567,46.04 142.511,46.068 142.456,46.091C142.378,46.122 142.323,46.154 142.292,46.185L142.257,46.337L142.081,46.361C141.979,46.384 141.907,46.4 141.864,46.408C141.821,46.415 141.772,46.419 141.718,46.419L141.565,46.408C141.472,46.314 141.395,46.242 141.337,46.191C141.278,46.14 141.21,46.095 141.132,46.056L141.061,45.962C141.03,45.9 141.011,45.843 141.003,45.792C140.995,45.742 140.983,45.689 140.968,45.634C140.952,45.533 140.929,45.462 140.897,45.423L140.722,45.247ZM144.46,42.201C144.35,42.357 144.245,42.521 144.143,42.693C144.198,42.685 144.251,42.681 144.302,42.681C144.352,42.681 144.405,42.677 144.46,42.669C144.733,42.654 144.987,42.634 145.222,42.611C145.456,42.587 145.71,42.548 145.983,42.494C145.921,42.205 145.852,41.91 145.778,41.609C145.704,41.308 145.624,41.005 145.538,40.701L145.479,40.818C145.284,41.029 145.097,41.255 144.917,41.497C144.737,41.74 144.589,41.97 144.472,42.189L144.46,42.201Z" style="fill:rgb(38,39,217);fill-rule:nonzero;"/>
        <path d="M149.78,45.353C149.741,45.361 149.706,45.331 149.675,45.265C149.643,45.199 149.608,45.134 149.569,45.072L149.698,45.072C149.643,44.9 149.63,44.742 149.657,44.597C149.684,44.453 149.718,44.312 149.757,44.175C149.796,44.038 149.829,43.906 149.856,43.777C149.884,43.648 149.87,43.513 149.815,43.372C149.854,43.396 149.884,43.386 149.903,43.343C149.923,43.3 149.938,43.246 149.95,43.179C149.962,43.113 149.966,43.042 149.962,42.968C149.958,42.894 149.952,42.833 149.944,42.787C150.046,42.544 150.126,42.294 150.184,42.037C150.243,41.779 150.296,41.523 150.343,41.269C150.39,41.015 150.442,40.769 150.501,40.531C150.559,40.292 150.636,40.068 150.729,39.857C150.839,39.841 150.954,39.855 151.075,39.898C151.196,39.941 151.276,39.994 151.315,40.056C151.558,39.869 151.772,39.642 151.96,39.376C152.147,39.111 152.337,38.851 152.528,38.597C152.72,38.343 152.936,38.119 153.179,37.923C153.421,37.728 153.722,37.611 154.081,37.572C154.268,37.705 154.479,37.847 154.714,37.999C154.948,38.152 155.14,38.341 155.288,38.568C155.35,38.607 155.411,38.648 155.47,38.691C155.528,38.734 155.589,38.775 155.651,38.814L155.651,38.99C155.761,39.091 155.852,39.21 155.927,39.347C156.001,39.484 156.067,39.628 156.126,39.781C156.184,39.933 156.241,40.087 156.296,40.244C156.35,40.4 156.413,40.544 156.483,40.677C156.468,40.724 156.462,40.765 156.466,40.8C156.47,40.835 156.477,40.871 156.489,40.906C156.501,40.941 156.511,40.98 156.518,41.023C156.526,41.066 156.53,41.119 156.53,41.181C156.499,41.595 156.364,41.929 156.126,42.183C155.888,42.437 155.599,42.644 155.259,42.804C154.919,42.964 154.558,43.101 154.175,43.214C153.792,43.328 153.444,43.451 153.132,43.583C153.132,43.615 153.149,43.63 153.184,43.63C153.22,43.63 153.229,43.654 153.214,43.701C153.448,43.841 153.63,43.955 153.759,44.04C153.888,44.126 154.009,44.199 154.122,44.257C154.235,44.316 154.36,44.365 154.497,44.404C154.634,44.443 154.823,44.49 155.065,44.544C155.308,44.599 155.497,44.644 155.634,44.679C155.77,44.714 155.893,44.742 156.003,44.761C156.112,44.781 156.229,44.798 156.354,44.814C156.479,44.83 156.647,44.849 156.858,44.872C156.944,44.958 157.015,45.06 157.069,45.177C157.124,45.294 157.163,45.412 157.186,45.529C157.21,45.646 157.216,45.757 157.204,45.863C157.192,45.968 157.159,46.052 157.104,46.115C157.112,46.146 157.134,46.16 157.169,46.156C157.204,46.152 157.241,46.154 157.28,46.162C157.225,46.201 157.179,46.247 157.14,46.302C157.1,46.357 157.061,46.412 157.022,46.466C156.983,46.521 156.938,46.572 156.888,46.619C156.837,46.665 156.772,46.693 156.694,46.701C156.413,46.81 156.054,46.814 155.616,46.712C155.179,46.611 154.62,46.431 153.94,46.173C153.604,46.048 153.331,45.935 153.12,45.833C152.909,45.732 152.725,45.632 152.569,45.535C152.413,45.437 152.268,45.331 152.136,45.218C152.003,45.105 151.85,44.97 151.679,44.814C151.655,44.822 151.641,44.837 151.638,44.861C151.634,44.884 151.62,44.9 151.597,44.908C151.558,45.22 151.497,45.474 151.415,45.669C151.333,45.865 151.214,46.064 151.058,46.267C150.933,46.244 150.849,46.255 150.806,46.302C150.763,46.349 150.71,46.392 150.647,46.431C150.569,46.447 150.511,46.445 150.472,46.425C150.433,46.406 150.397,46.384 150.366,46.361C150.335,46.337 150.3,46.314 150.261,46.29C150.222,46.267 150.159,46.259 150.073,46.267C150.05,46.197 150.026,46.128 150.003,46.062C149.979,45.996 149.917,45.966 149.815,45.974C149.839,45.904 149.847,45.843 149.839,45.792C149.831,45.742 149.819,45.695 149.804,45.652C149.788,45.609 149.774,45.564 149.763,45.517C149.751,45.47 149.757,45.415 149.78,45.353ZM153.694,39.997C153.593,40.146 153.479,40.281 153.354,40.402C153.229,40.523 153.106,40.648 152.985,40.777C152.864,40.906 152.757,41.046 152.663,41.199C152.569,41.351 152.503,41.533 152.464,41.744C152.792,41.705 153.136,41.613 153.495,41.468C153.854,41.324 154.194,41.185 154.515,41.052C154.475,40.763 154.374,40.531 154.21,40.355C154.046,40.179 153.874,40.06 153.694,39.997Z" style="fill:rgb(157,38,217);fill-rule:nonzero;"/>
        <path d="M157.866,45.962C157.804,45.9 157.759,45.826 157.731,45.74C157.704,45.654 157.64,45.583 157.538,45.529C157.522,45.412 157.501,45.277 157.474,45.124C157.446,44.972 157.419,44.816 157.391,44.656C157.364,44.496 157.345,44.335 157.333,44.175C157.321,44.015 157.327,43.869 157.35,43.736C157.366,43.665 157.391,43.599 157.427,43.537C157.462,43.474 157.497,43.413 157.532,43.355C157.567,43.296 157.595,43.236 157.614,43.173C157.634,43.111 157.636,43.048 157.62,42.986C157.667,42.978 157.696,42.953 157.708,42.91C157.72,42.867 157.757,42.853 157.819,42.869C157.874,42.697 157.933,42.537 157.995,42.388C158.058,42.24 158.124,42.095 158.194,41.955C158.265,41.814 158.337,41.671 158.411,41.527C158.485,41.382 158.554,41.22 158.616,41.04C158.483,40.915 158.388,40.781 158.329,40.636C158.27,40.492 158.225,40.345 158.194,40.197C158.163,40.048 158.14,39.898 158.124,39.746C158.108,39.593 158.077,39.439 158.03,39.283C158.124,39.142 158.237,39.027 158.37,38.937C158.503,38.847 158.649,38.773 158.809,38.714C158.97,38.656 159.143,38.609 159.331,38.574C159.518,38.538 159.718,38.497 159.929,38.451C160.304,38.333 160.64,38.242 160.936,38.175C161.233,38.109 161.522,38.054 161.804,38.011C162.085,37.968 162.378,37.929 162.683,37.894C162.987,37.859 163.339,37.806 163.737,37.736C163.745,37.759 163.759,37.771 163.778,37.771L163.854,37.771C163.878,37.826 163.921,37.853 163.983,37.853C163.983,37.83 163.981,37.808 163.977,37.788C163.974,37.769 163.972,37.751 163.972,37.736C163.987,37.736 164.009,37.74 164.036,37.747C164.063,37.755 164.087,37.763 164.106,37.771C164.126,37.779 164.143,37.777 164.159,37.765C164.175,37.753 164.179,37.728 164.171,37.689C164.265,37.853 164.386,37.988 164.534,38.093C164.683,38.199 164.847,38.29 165.026,38.369C165.034,38.439 165.036,38.49 165.032,38.521C165.028,38.552 165.022,38.581 165.015,38.609C165.007,38.636 165.003,38.667 165.003,38.703C165.003,38.738 165.011,38.787 165.026,38.849C164.901,39.06 164.759,39.224 164.599,39.341C164.438,39.458 164.268,39.548 164.089,39.611C163.909,39.673 163.72,39.72 163.52,39.751C163.321,39.783 163.118,39.816 162.911,39.851C162.704,39.886 162.495,39.935 162.284,39.997C162.073,40.06 161.866,40.154 161.663,40.279C161.6,40.255 161.544,40.246 161.493,40.249C161.442,40.253 161.39,40.263 161.335,40.279C161.28,40.294 161.22,40.31 161.153,40.326C161.087,40.341 161.007,40.341 160.913,40.326C160.85,40.38 160.778,40.419 160.696,40.443C160.614,40.466 160.53,40.49 160.444,40.513C160.483,40.599 160.501,40.685 160.497,40.771C160.493,40.857 160.503,40.931 160.526,40.994C160.854,41.025 161.218,41.023 161.616,40.988C162.015,40.953 162.405,40.927 162.788,40.912C162.796,40.951 162.792,40.978 162.776,40.994C162.761,41.009 162.753,41.037 162.753,41.076C162.823,41.122 162.89,41.181 162.952,41.251C163.015,41.322 163.079,41.39 163.145,41.456C163.212,41.523 163.28,41.578 163.35,41.621C163.421,41.663 163.503,41.681 163.597,41.673C163.636,41.751 163.663,41.833 163.679,41.919C163.694,42.005 163.683,42.095 163.643,42.189C163.487,42.29 163.335,42.394 163.186,42.499C163.038,42.605 162.884,42.701 162.724,42.787C162.563,42.872 162.39,42.943 162.202,42.997C162.015,43.052 161.811,43.076 161.593,43.068L161.493,43.068C161.466,43.068 161.433,43.052 161.393,43.021C161.315,43.06 161.212,43.074 161.083,43.062C160.954,43.05 160.847,43.064 160.761,43.103C160.651,43.064 160.524,43.044 160.38,43.044C160.235,43.044 160.108,43.025 159.999,42.986C159.858,43.189 159.725,43.402 159.6,43.624C159.475,43.847 159.366,44.083 159.272,44.333C159.593,44.38 159.858,44.4 160.069,44.392C160.28,44.384 160.479,44.369 160.667,44.345C160.854,44.322 161.048,44.298 161.247,44.275C161.446,44.251 161.69,44.244 161.979,44.251C162.175,44.158 162.399,44.093 162.653,44.058C162.907,44.023 163.143,43.97 163.362,43.9C163.44,43.923 163.507,43.968 163.561,44.035C163.616,44.101 163.669,44.167 163.72,44.234C163.77,44.3 163.823,44.357 163.878,44.404C163.933,44.451 164.003,44.466 164.089,44.451C164.128,44.49 164.153,44.537 164.165,44.591C164.177,44.646 164.188,44.697 164.2,44.744C164.212,44.79 164.229,44.828 164.253,44.855C164.276,44.882 164.319,44.892 164.382,44.884C164.233,45.189 164.067,45.423 163.884,45.587C163.7,45.751 163.493,45.878 163.263,45.968C163.032,46.058 162.774,46.124 162.489,46.167C162.204,46.21 161.886,46.263 161.534,46.326C161.448,46.341 161.376,46.339 161.317,46.32C161.259,46.3 161.198,46.29 161.136,46.29C160.917,46.33 160.657,46.369 160.356,46.408C160.056,46.447 159.753,46.462 159.448,46.455C159.143,46.447 158.85,46.408 158.569,46.337C158.288,46.267 158.054,46.142 157.866,45.962Z" style="fill:rgb(217,38,158);fill-rule:nonzero;"/>
    </g>
</svg>
